<?xml version="1.0" encoding="UTF-8"?>
<svg width="12px" height="10px" viewBox="0 0 12 10" version="1.1" xmlns="http://www.w3.org/2000/svg" xmlns:xlink="http://www.w3.org/1999/xlink">
    <!-- Generator: Sketch 47.1 (45422) - http://www.bohemiancoding.com/sketch -->
    <title>icon_check_green</title>
    <desc>Created with Sketch.</desc>
    <defs></defs>
    <g id="website" stroke="none" stroke-width="1" fill="none" fill-rule="evenodd">
        <g id="home2" transform="translate(-529.000000, -38.000000)" fill="#26C68C">
            <g id="Group-3" transform="translate(529.000000, 34.000000)">
                <path d="M6.73271288,8.26389016 C8.69009287,6.07791809 9.51407897,5.16280444 10.2795214,4.33281445 C10.4304476,4.16161868 10.6327143,4.0482732 10.8535445,4.01114558 C11.2858322,3.94639073 11.6986455,4.16824129 11.8916132,4.56106437 C12.0845808,4.95388745 12.0148687,5.43048585 11.7224639,5.74180664 C10.9557256,6.57345143 10.1493848,7.46962683 8.13880081,9.71648523 C6.16611592,11.9209906 5.33652947,12.8428449 4.5599019,13.6851888 C4.19369165,14.0795051 3.59386469,14.1077705 3.18994963,13.7452568 L0.404182678,11.193498 C0.102453795,10.9631336 -0.0484902831,10.5763016 0.0138785675,10.1932459 C0.0762474181,9.81019013 0.341306391,9.49615367 0.699255613,9.38122512 C1.05720484,9.26629658 1.44707757,9.37005084 1.66902922,9.61152444 L3.78311781,11.5435235 C4.42980814,10.8331327 5.21528205,9.9585339 6.73271288,8.26389016 Z" id="icon_check_green"></path>
            </g>
        </g>
    </g>
</svg>