<?xml version="1.0" encoding="UTF-8"?>
<svg width="16px" height="14px" viewBox="0 0 16 14" version="1.1" xmlns="http://www.w3.org/2000/svg" xmlns:xlink="http://www.w3.org/1999/xlink">
    <!-- Generator: Sketch 47.1 (45422) - http://www.bohemiancoding.com/sketch -->
    <title>icon_check_white</title>
    <desc>Created with Sketch.</desc>
    <defs></defs>
    <g id="website" stroke="none" stroke-width="1" fill="none" fill-rule="evenodd">
        <g id="home2" transform="translate(-261.000000, -887.000000)" fill="#FFFFFF">
            <g id="Group-4" transform="translate(226.000000, 238.000000)">
                <g id="Group-7" transform="translate(19.000000, 629.000000)">
                    <path d="M24.8185105,25.88319 C27.2811914,23.1329056 28.1950129,22.1196912 29.0728844,21.167921 C29.3068305,20.9025555 29.6216168,20.7261567 29.9724034,20.6672366 C30.6407738,20.5671176 31.2847843,20.9096868 31.5840792,21.5189596 C31.8790754,22.1194817 31.7739876,22.8486342 31.3242818,23.32741 C30.4422842,24.2840711 29.5526791,25.2711173 27.0273818,28.0931758 C24.5449535,30.8673271 23.6250915,31.887777 22.7283408,32.8604052 C22.1580647,33.474449 21.2200442,33.5165139 20.5915296,32.952398 L17.2726267,29.9103872 C16.8071681,29.5550182 16.5757443,28.9619368 16.6712033,28.375649 C16.7669715,27.7874616 17.1760858,27.3027514 17.7321103,27.1242258 C18.2809633,26.9480029 18.8944752,27.0987375 19.2389456,27.4754656 L21.5167887,29.5571147 C22.2052252,28.7985381 23.0743717,27.8310177 24.8185105,25.88319 Z" id="icon_check_white"></path>
                </g>
            </g>
        </g>
    </g>
</svg>