<?xml version="1.0" encoding="UTF-8"?>
<svg width="125px" height="46px" viewBox="0 0 125 46" version="1.1" xmlns="http://www.w3.org/2000/svg" xmlns:xlink="http://www.w3.org/1999/xlink">
    <!-- Generator: Sketch 47.1 (45422) - http://www.bohemiancoding.com/sketch -->
    <title>Group</title>
    <desc>Created with Sketch.</desc>
    <defs>
        <linearGradient x1="100%" y1="100%" x2="0%" y2="0%" id="linearGradient-1">
            <stop stop-color="#5E80AC" offset="0%"></stop>
            <stop stop-color="#D6867E" offset="100%"></stop>
        </linearGradient>
    </defs>
    <g id="splash" stroke="none" stroke-width="1" fill="none" fill-rule="evenodd">
        <g id="Desktop" transform="translate(-211.000000, -129.000000)">
            <g id="Group" transform="translate(211.000000, 129.000000)">
                <path d="M15.6381664,31.3402778 C14.5611587,30.9004608 13.6943118,30.2407451 13.0375998,29.3611111 C12.3808878,28.4814771 12.0350246,27.4171359 12,26.1680556 C12,26.0097214 12.0525362,25.8733802 12.1576101,25.7590278 C12.262684,25.6446754 12.4027805,25.5875 12.5779037,25.5875 L15.1259336,25.5875 C15.5287169,25.5875 15.7826418,25.8074052 15.8877157,26.2472222 C16.0278142,27.1620416 16.3999455,27.8393497 17.0041205,28.2791667 C17.6082956,28.7189837 18.3744481,28.9388889 19.3026011,28.9388889 C20.3883649,28.9388889 21.2245657,28.5826425 21.8112284,27.8701389 C22.3978912,27.1576353 22.6912181,26.1592657 22.6912181,24.875 L22.6912181,16.4305556 L13.7862477,16.4305556 C13.6111245,16.4305556 13.4622721,16.3689821 13.3396858,16.2458333 C13.2170996,16.1226846 13.1558074,15.9643528 13.1558074,15.7708333 L13.1558074,13.8972222 C13.1558074,13.7037027 13.2170996,13.5497691 13.3396858,13.4354167 C13.4622721,13.3210642 13.6111245,13.2638889 13.7862477,13.2638889 L25.84342,13.2638889 C26.0360556,13.2638889 26.1892861,13.3254623 26.3031161,13.4486111 C26.4169462,13.5717599 26.4738604,13.7300916 26.4738604,13.9236111 L26.4738604,24.9805556 C26.4738604,26.440748 26.1761554,27.6986058 25.5807365,28.7541667 C24.9853177,29.8097275 24.1403609,30.6145806 23.0458408,31.16875 C21.9513208,31.7229194 20.6685626,32 19.1975277,32 C17.901616,32 16.7151741,31.7800948 15.6381664,31.3402778 Z M31.3860417,30.4166667 C30.2652532,29.3611058 29.6610872,27.9009352 29.5735256,26.0361111 L29.5472573,24.875 L29.5735256,23.7138889 C29.6610872,21.8666574 30.2740092,20.410885 31.4123101,19.3465278 C32.5506109,18.2821706 34.1354521,17.75 36.1668813,17.75 C38.1807981,17.75 39.7568833,18.2821706 40.8951841,19.3465278 C42.033485,20.410885 42.646407,21.8666574 42.7339686,23.7138889 C42.7514809,23.9250011 42.7602369,24.3120342 42.7602369,24.875 C42.7602369,25.4379658 42.7514809,25.8249989 42.7339686,26.0361111 C42.646407,27.9009352 42.042241,29.3611058 40.9214525,30.4166667 C39.800664,31.4722275 38.2158228,32 36.1668813,32 C34.1004275,32 32.5068302,31.4722275 31.3860417,30.4166667 Z M38.3077517,28.4638889 C38.8068529,27.8833304 39.0739117,27.0300982 39.1089364,25.9041667 C39.1264487,25.7282399 39.1352047,25.3851877 39.1352047,24.875 C39.1352047,24.3648123 39.1264487,24.0217601 39.1089364,23.8458333 C39.0739117,22.7199018 38.8024749,21.8622715 38.2946176,21.2729167 C37.7867603,20.6835619 37.0775219,20.3888889 36.1668813,20.3888889 C35.2387283,20.3888889 34.5207339,20.6835619 34.0128766,21.2729167 C33.5050194,21.8622715 33.2335825,22.7199018 33.1985578,23.8458333 L33.1722895,24.875 L33.1985578,25.9041667 C33.2335825,27.0300982 33.5050194,27.8833304 34.0128766,28.4638889 C34.5207339,29.0444473 35.2387283,29.3347222 36.1668813,29.3347222 C37.0950343,29.3347222 37.8086506,29.0444473 38.3077517,28.4638889 Z M49.0909091,30.1263889 L49.0909091,31.1027778 C49.0909091,31.2787046 49.0296169,31.4282401 48.9070306,31.5513889 C48.7844444,31.6745377 48.6268359,31.7361111 48.4342004,31.7361111 L46.3327324,31.7361111 C46.1576092,31.7361111 46.0087567,31.6745377 45.8861705,31.5513889 C45.7635842,31.4282401 45.702292,31.2787046 45.702292,31.1027778 L45.702292,13.6333333 C45.702292,13.4398138 45.7635842,13.2858802 45.8861705,13.1715278 C46.0087567,13.0571754 46.1576092,13 46.3327324,13 L48.6180788,13 C48.8107143,13 48.9639448,13.0571754 49.0777749,13.1715278 C49.191605,13.2858802 49.2485192,13.4398138 49.2485192,13.6333333 L49.2485192,19.4916667 C50.2292091,18.3305498 51.5688815,17.75 53.2675766,17.75 C55.036321,17.75 56.3978835,18.3261516 57.3523049,19.4784722 C58.3067264,20.6307928 58.810198,22.1393425 58.862735,24.0041667 C58.8802473,24.2152788 58.8890033,24.5055537 58.8890033,24.875 C58.8890033,25.2268536 58.8802473,25.5171285 58.862735,25.7458333 C58.7926857,27.6458428 58.284836,29.1631888 57.3391707,30.2979167 C56.3935054,31.4326446 55.036321,32 53.2675766,32 C51.4462953,32 50.0540867,31.3754692 49.0909091,30.1263889 Z M55.2639712,25.6666667 C55.2814835,25.4907399 55.2902395,25.2268536 55.2902395,24.875 C55.2902395,24.5231464 55.2814835,24.2592601 55.2639712,24.0833333 C55.1413849,21.7610995 54.1431976,20.6 52.2693793,20.6 C51.3062017,20.6 50.5706953,20.9078673 50.062838,21.5236111 C49.5549807,22.1393549 49.2835438,22.8870326 49.2485192,23.7666667 C49.2310069,23.9777788 49.2222508,24.320831 49.2222508,24.7958333 C49.2222508,25.253243 49.2310069,25.5874989 49.2485192,25.7986111 C49.2835438,26.7310232 49.5462247,27.5226819 50.0365697,28.1736111 C50.5269146,28.8245403 51.2711771,29.15 52.2693793,29.15 C54.1431976,29.15 55.1413849,27.9889005 55.2639712,25.6666667 Z M64.4841617,31.2875 C63.3633732,30.8124976 62.5140384,30.1879668 61.9361319,29.4138889 C61.3582253,28.6398109 61.0517643,27.7953749 61.0167396,26.8805556 C61.0167396,26.7398141 61.0692758,26.6122691 61.1743497,26.4979167 C61.2794237,26.3835642 61.4107641,26.3263889 61.568375,26.3263889 L63.9587947,26.3263889 C64.1514303,26.3263889 64.3090388,26.3703699 64.431625,26.4583333 C64.5542113,26.5462967 64.6680396,26.6694437 64.7731136,26.8277778 C64.9482368,27.4259289 65.3466361,27.9273128 65.9683235,28.3319444 C66.5900108,28.7365761 67.4437236,28.9388889 68.5294875,28.9388889 C69.7553499,28.9388889 70.679111,28.732178 71.3007984,28.31875 C71.9224857,27.905322 72.2333247,27.3379666 72.2333247,26.6166667 C72.2333247,26.1416643 72.0757162,25.7458349 71.7604945,25.4291667 C71.4452727,25.1124984 70.9680691,24.8354179 70.3288694,24.5979167 C69.6896697,24.3604155 68.7396406,24.0745387 67.4787535,23.7402778 C65.4122997,23.2476827 63.8975067,22.5967633 62.9343291,21.7875 C61.9711515,20.9782367 61.4895699,19.8171372 61.4895699,18.3041667 C61.4895699,17.2837912 61.7697628,16.3733836 62.3301571,15.5729167 C62.8905513,14.7724497 63.691728,14.1435208 64.733711,13.6861111 C65.7756941,13.2287014 66.9884041,13 68.3718774,13 C69.8254,13 71.0818901,13.25509 72.1413855,13.7652778 C73.2008809,14.2754655 74.0064356,14.9131906 74.5580737,15.6784722 C75.1097117,16.4437538 75.4030387,17.2046258 75.4380634,17.9611111 C75.4380634,18.1018526 75.3855272,18.2293976 75.2804533,18.34375 C75.1753793,18.4581024 75.0440389,18.5152778 74.886428,18.5152778 L72.3909348,18.5152778 C72.0056638,18.5152778 71.7429829,18.356946 71.6028844,18.0402778 C71.5153228,17.477312 71.1738376,17.0067149 70.5784187,16.6284722 C69.9829999,16.2502296 69.2474934,16.0611111 68.3718774,16.0611111 C67.4086998,16.0611111 66.6513033,16.2458315 66.0996652,16.6152778 C65.5480271,16.9847241 65.2722122,17.5212928 65.2722122,18.225 C65.2722122,18.7000024 65.4123087,19.0958318 65.6925058,19.4125 C65.9727029,19.7291682 66.4105044,20.0062488 67.0059233,20.24375 C67.6013421,20.4812512 68.468189,20.7495355 69.6064898,21.0486111 C71.1650863,21.4004647 72.4040644,21.7962941 73.3234612,22.2361111 C74.2428581,22.6759281 74.9214503,23.2300892 75.3592583,23.8986111 C75.7970663,24.567133 76.015967,25.4203652 76.015967,26.4583333 C76.015967,27.6018576 75.705128,28.591431 75.0834406,29.4270833 C74.4617533,30.2627357 73.5861504,30.9004608 72.4566057,31.3402778 C71.3270611,31.7800948 70.0180347,32 68.5294875,32 C66.9533787,32 65.6049502,31.7625024 64.4841617,31.2875 Z M81.2959052,30.4826389 C80.4903385,29.6469866 80.0875612,28.4199155 80.0875612,26.8013889 L80.0875612,20.8375 L78.0123616,20.8375 C77.8372384,20.8375 77.6883859,20.7759265 77.5657996,20.6527778 C77.4432134,20.529629 77.3819212,20.3800935 77.3819212,20.2041667 L77.3819212,18.6472222 C77.3819212,18.4712954 77.4432134,18.3217599 77.5657996,18.1986111 C77.6883859,18.0754623 77.8372384,18.0138889 78.0123616,18.0138889 L80.0875612,18.0138889 L80.0875612,13.6333333 C80.0875612,13.4398138 80.1488534,13.2858802 80.2714396,13.1715278 C80.3940259,13.0571754 80.5428783,13 80.7180015,13 L82.8982745,13 C83.0909101,13 83.2441406,13.0571754 83.3579706,13.1715278 C83.4718007,13.2858802 83.5287149,13.4398138 83.5287149,13.6333333 L83.5287149,18.0138889 L86.8122586,18.0138889 C86.9873818,18.0138889 87.1362343,18.0754623 87.2588205,18.1986111 C87.3814067,18.3217599 87.4426989,18.4712954 87.4426989,18.6472222 L87.4426989,20.2041667 C87.4426989,20.3800935 87.3814067,20.529629 87.2588205,20.6527778 C87.1362343,20.7759265 86.9873818,20.8375 86.8122586,20.8375 L83.5287149,20.8375 L83.5287149,26.5111111 C83.5287149,27.2675964 83.6600553,27.8393499 83.9227401,28.2263889 C84.185425,28.6134279 84.6144704,28.8069444 85.2098893,28.8069444 L87.0486737,28.8069444 C87.2413092,28.8069444 87.3945397,28.8641198 87.5083698,28.9784722 C87.6221999,29.0928246 87.6791141,29.2467583 87.6791141,29.4402778 L87.6791141,31.1027778 C87.6791141,31.2787046 87.6221999,31.4282401 87.5083698,31.5513889 C87.3945397,31.6745377 87.2413092,31.7361111 87.0486737,31.7361111 L84.8946691,31.7361111 C83.3010479,31.7361111 82.101472,31.3182912 81.2959052,30.4826389 Z M91.5274272,31.4590278 C90.7831536,31.0983778 90.1964997,30.6101883 89.7674478,29.9944444 C89.338396,29.3787006 89.1238733,28.7013926 89.1238733,27.9625 C89.1238733,26.7661977 89.6054549,25.7986148 90.5686325,25.0597222 C91.5318101,24.3208296 92.8539705,23.8194458 94.5351532,23.5555556 L98.1339171,23.0277778 L98.1339171,22.4736111 C98.1339171,21.7171258 97.9412844,21.1453723 97.5560134,20.7583333 C97.1707423,20.3712944 96.5578203,20.1777778 95.7172289,20.1777778 C95.1393224,20.1777778 94.6752528,20.2833323 94.3250064,20.4944444 C93.97476,20.7055566 93.6901891,20.9210637 93.4712851,21.1409722 L93.0378573,21.5763889 C92.967808,21.7875011 92.8364676,21.8930556 92.6438321,21.8930556 L90.5949008,21.8930556 C90.43729,21.8930556 90.3015715,21.8402783 90.1877414,21.7347222 C90.0739114,21.6291661 90.0169972,21.4884268 90.0169972,21.3125 C90.0345095,20.872683 90.2490322,20.3756972 90.6605717,19.8215278 C91.0721113,19.2673583 91.7069233,18.7835669 92.565027,18.3701389 C93.4231307,17.9567109 94.4826102,17.75 95.7434973,17.75 C97.8099511,17.75 99.3159881,18.216199 100.261653,19.1486111 C101.207319,20.0810232 101.680144,21.3036961 101.680144,22.8166667 L101.680144,31.1027778 C101.680144,31.2787046 101.62323,31.4282401 101.5094,31.5513889 C101.39557,31.6745377 101.242339,31.7361111 101.049704,31.7361111 L98.8694309,31.7361111 C98.6943076,31.7361111 98.5454552,31.6745377 98.4228689,31.5513889 C98.3002827,31.4282401 98.2389905,31.2787046 98.2389905,31.1027778 L98.2389905,30.0736111 C97.8537194,30.6365769 97.3108456,31.0983778 96.6103528,31.4590278 C95.90986,31.8196777 95.0342571,32 93.9835179,32 C93.0903896,32 92.2717009,31.8196777 91.5274272,31.4590278 Z M97.2407932,28.5166667 C97.8537244,27.8833302 98.1601854,26.9685245 98.1601854,25.7722222 L98.1601854,25.2444444 L95.5333505,25.6666667 C93.5194337,25.9833349 92.5124903,26.660643 92.5124903,27.6986111 C92.5124903,28.2615769 92.7445251,28.6969892 93.2086016,29.0048611 C93.6726781,29.312733 94.2286859,29.4666667 94.8766418,29.4666667 C95.8398194,29.4666667 96.627862,29.1500032 97.2407932,28.5166667 Z M105.226371,31.5513889 C105.103785,31.4282401 105.042493,31.2787046 105.042493,31.1027778 L105.042493,18.6736111 C105.042493,18.4800916 105.103785,18.3217599 105.226371,18.1986111 C105.348958,18.0754623 105.49781,18.0138889 105.672933,18.0138889 L107.826938,18.0138889 C108.019573,18.0138889 108.177182,18.0754623 108.299768,18.1986111 C108.422354,18.3217599 108.483647,18.4800916 108.483647,18.6736111 L108.483647,19.7555556 C109.359263,18.5944386 110.620131,18.0138889 112.266289,18.0138889 L113.36956,18.0138889 C113.562195,18.0138889 113.715426,18.0710642 113.829256,18.1854167 C113.943086,18.2997691 114,18.4537027 114,18.6472222 L114,20.5736111 C114,20.7495379 113.943086,20.8990735 113.829256,21.0222222 C113.715426,21.145371 113.562195,21.2069444 113.36956,21.2069444 L111.29436,21.2069444 C110.471281,21.2069444 109.823335,21.4444421 109.350502,21.9194444 C108.87767,22.3944468 108.641257,23.0453662 108.641257,23.8722222 L108.641257,31.1027778 C108.641257,31.2787046 108.579965,31.4282401 108.457378,31.5513889 C108.334792,31.6745377 108.18594,31.7361111 108.010816,31.7361111 L105.672933,31.7361111 C105.49781,31.7361111 105.348958,31.6745377 105.226371,31.5513889 Z" id="JobStar" fill="#000000"></path>
                <path d="M6.78066038,4.12820513 C5.31528221,4.12820513 4.12735849,5.31637252 4.12735849,6.78205128 L4.12735849,39.2179487 C4.12735849,40.6836275 5.31528221,41.8717949 6.78066038,41.8717949 L118.21934,41.8717949 C119.684718,41.8717949 120.872642,40.6836275 120.872642,39.2179487 L120.872642,6.78205128 C120.872642,5.31637252 119.684718,4.12820513 118.21934,4.12820513 L6.78066038,4.12820513 Z M6.78066038,0 L118.21934,0 C121.964195,-6.88059874e-16 125,3.03642779 125,6.78205128 L125,39.2179487 C125,42.9635722 121.964195,46 118.21934,46 L6.78066038,46 C3.03580506,46 4.58612508e-16,42.9635722 0,39.2179487 L0,6.78205128 C-4.58612508e-16,3.03642779 3.03580506,2.78324999e-15 6.78066038,0 Z" id="Rectangle" fill="url(#linearGradient-1)" fill-rule="nonzero"></path>
            </g>
        </g>
    </g>
</svg>