<?xml version="1.0" encoding="UTF-8"?>
<svg width="102px" height="19px" viewBox="0 0 102 19" version="1.1" xmlns="http://www.w3.org/2000/svg" xmlns:xlink="http://www.w3.org/1999/xlink">
    <!-- Generator: Sketch 47.1 (45422) - http://www.bohemiancoding.com/sketch -->
    <title>JobStar</title>
    <desc>Created with Sketch.</desc>
    <defs></defs>
    <g id="website" stroke="none" stroke-width="1" fill="none" fill-rule="evenodd">
        <g id="home" transform="translate(-742.000000, -33.000000)" fill="#FFFFFF">
            <path d="M745.638166,51.3402778 C744.561159,50.9004608 743.694312,50.2407451 743.0376,49.3611111 C742.380888,48.4814771 742.035025,47.4171359 742,46.1680556 C742,46.0097214 742.052536,45.8733802 742.15761,45.7590278 C742.262684,45.6446754 742.40278,45.5875 742.577904,45.5875 L745.125934,45.5875 C745.528717,45.5875 745.782642,45.8074052 745.887716,46.2472222 C746.027814,47.1620416 746.399945,47.8393497 747.004121,48.2791667 C747.608296,48.7189837 748.374448,48.9388889 749.302601,48.9388889 C750.388365,48.9388889 751.224566,48.5826425 751.811228,47.8701389 C752.397891,47.1576353 752.691218,46.1592657 752.691218,44.875 L752.691218,36.4305556 L743.786248,36.4305556 C743.611125,36.4305556 743.462272,36.3689821 743.339686,36.2458333 C743.2171,36.1226846 743.155807,35.9643528 743.155807,35.7708333 L743.155807,33.8972222 C743.155807,33.7037027 743.2171,33.5497691 743.339686,33.4354167 C743.462272,33.3210642 743.611125,33.2638889 743.786248,33.2638889 L755.84342,33.2638889 C756.036056,33.2638889 756.189286,33.3254623 756.303116,33.4486111 C756.416946,33.5717599 756.47386,33.7300916 756.47386,33.9236111 L756.47386,44.9805556 C756.47386,46.440748 756.176155,47.6986058 755.580737,48.7541667 C754.985318,49.8097275 754.140361,50.6145806 753.045841,51.16875 C751.951321,51.7229194 750.668563,52 749.197528,52 C747.901616,52 746.715174,51.7800948 745.638166,51.3402778 Z M761.386042,50.4166667 C760.265253,49.3611058 759.661087,47.9009352 759.573526,46.0361111 L759.547257,44.875 L759.573526,43.7138889 C759.661087,41.8666574 760.274009,40.410885 761.41231,39.3465278 C762.550611,38.2821706 764.135452,37.75 766.166881,37.75 C768.180798,37.75 769.756883,38.2821706 770.895184,39.3465278 C772.033485,40.410885 772.646407,41.8666574 772.733969,43.7138889 C772.751481,43.9250011 772.760237,44.3120342 772.760237,44.875 C772.760237,45.4379658 772.751481,45.8249989 772.733969,46.0361111 C772.646407,47.9009352 772.042241,49.3611058 770.921452,50.4166667 C769.800664,51.4722275 768.215823,52 766.166881,52 C764.100427,52 762.50683,51.4722275 761.386042,50.4166667 Z M768.307752,48.4638889 C768.806853,47.8833304 769.073912,47.0300982 769.108936,45.9041667 C769.126449,45.7282399 769.135205,45.3851877 769.135205,44.875 C769.135205,44.3648123 769.126449,44.0217601 769.108936,43.8458333 C769.073912,42.7199018 768.802475,41.8622715 768.294618,41.2729167 C767.78676,40.6835619 767.077522,40.3888889 766.166881,40.3888889 C765.238728,40.3888889 764.520734,40.6835619 764.012877,41.2729167 C763.505019,41.8622715 763.233582,42.7199018 763.198558,43.8458333 L763.172289,44.875 L763.198558,45.9041667 C763.233582,47.0300982 763.505019,47.8833304 764.012877,48.4638889 C764.520734,49.0444473 765.238728,49.3347222 766.166881,49.3347222 C767.095034,49.3347222 767.808651,49.0444473 768.307752,48.4638889 Z M779.090909,50.1263889 L779.090909,51.1027778 C779.090909,51.2787046 779.029617,51.4282401 778.907031,51.5513889 C778.784444,51.6745377 778.626836,51.7361111 778.4342,51.7361111 L776.332732,51.7361111 C776.157609,51.7361111 776.008757,51.6745377 775.88617,51.5513889 C775.763584,51.4282401 775.702292,51.2787046 775.702292,51.1027778 L775.702292,33.6333333 C775.702292,33.4398138 775.763584,33.2858802 775.88617,33.1715278 C776.008757,33.0571754 776.157609,33 776.332732,33 L778.618079,33 C778.810714,33 778.963945,33.0571754 779.077775,33.1715278 C779.191605,33.2858802 779.248519,33.4398138 779.248519,33.6333333 L779.248519,39.4916667 C780.229209,38.3305498 781.568882,37.75 783.267577,37.75 C785.036321,37.75 786.397883,38.3261516 787.352305,39.4784722 C788.306726,40.6307928 788.810198,42.1393425 788.862735,44.0041667 C788.880247,44.2152788 788.889003,44.5055537 788.889003,44.875 C788.889003,45.2268536 788.880247,45.5171285 788.862735,45.7458333 C788.792686,47.6458428 788.284836,49.1631888 787.339171,50.2979167 C786.393505,51.4326446 785.036321,52 783.267577,52 C781.446295,52 780.054087,51.3754692 779.090909,50.1263889 Z M785.263971,45.6666667 C785.281483,45.4907399 785.29024,45.2268536 785.29024,44.875 C785.29024,44.5231464 785.281483,44.2592601 785.263971,44.0833333 C785.141385,41.7610995 784.143198,40.6 782.269379,40.6 C781.306202,40.6 780.570695,40.9078673 780.062838,41.5236111 C779.554981,42.1393549 779.283544,42.8870326 779.248519,43.7666667 C779.231007,43.9777788 779.222251,44.320831 779.222251,44.7958333 C779.222251,45.253243 779.231007,45.5874989 779.248519,45.7986111 C779.283544,46.7310232 779.546225,47.5226819 780.03657,48.1736111 C780.526915,48.8245403 781.271177,49.15 782.269379,49.15 C784.143198,49.15 785.141385,47.9889005 785.263971,45.6666667 Z M794.484162,51.2875 C793.363373,50.8124976 792.514038,50.1879668 791.936132,49.4138889 C791.358225,48.6398109 791.051764,47.7953749 791.01674,46.8805556 C791.01674,46.7398141 791.069276,46.6122691 791.17435,46.4979167 C791.279424,46.3835642 791.410764,46.3263889 791.568375,46.3263889 L793.958795,46.3263889 C794.15143,46.3263889 794.309039,46.3703699 794.431625,46.4583333 C794.554211,46.5462967 794.66804,46.6694437 794.773114,46.8277778 C794.948237,47.4259289 795.346636,47.9273128 795.968323,48.3319444 C796.590011,48.7365761 797.443724,48.9388889 798.529488,48.9388889 C799.75535,48.9388889 800.679111,48.732178 801.300798,48.31875 C801.922486,47.905322 802.233325,47.3379666 802.233325,46.6166667 C802.233325,46.1416643 802.075716,45.7458349 801.760494,45.4291667 C801.445273,45.1124984 800.968069,44.8354179 800.328869,44.5979167 C799.68967,44.3604155 798.739641,44.0745387 797.478754,43.7402778 C795.4123,43.2476827 793.897507,42.5967633 792.934329,41.7875 C791.971152,40.9782367 791.48957,39.8171372 791.48957,38.3041667 C791.48957,37.2837912 791.769763,36.3733836 792.330157,35.5729167 C792.890551,34.7724497 793.691728,34.1435208 794.733711,33.6861111 C795.775694,33.2287014 796.988404,33 798.371877,33 C799.8254,33 801.08189,33.25509 802.141386,33.7652778 C803.200881,34.2754655 804.006436,34.9131906 804.558074,35.6784722 C805.109712,36.4437538 805.403039,37.2046258 805.438063,37.9611111 C805.438063,38.1018526 805.385527,38.2293976 805.280453,38.34375 C805.175379,38.4581024 805.044039,38.5152778 804.886428,38.5152778 L802.390935,38.5152778 C802.005664,38.5152778 801.742983,38.356946 801.602884,38.0402778 C801.515323,37.477312 801.173838,37.0067149 800.578419,36.6284722 C799.983,36.2502296 799.247493,36.0611111 798.371877,36.0611111 C797.4087,36.0611111 796.651303,36.2458315 796.099665,36.6152778 C795.548027,36.9847241 795.272212,37.5212928 795.272212,38.225 C795.272212,38.7000024 795.412309,39.0958318 795.692506,39.4125 C795.972703,39.7291683 796.410504,40.0062488 797.005923,40.24375 C797.601342,40.4812512 798.468189,40.7495355 799.60649,41.0486111 C801.165086,41.4004647 802.404064,41.7962941 803.323461,42.2361111 C804.242858,42.6759281 804.92145,43.2300892 805.359258,43.8986111 C805.797066,44.567133 806.015967,45.4203652 806.015967,46.4583333 C806.015967,47.6018576 805.705128,48.591431 805.083441,49.4270833 C804.461753,50.2627357 803.58615,50.9004608 802.456606,51.3402778 C801.327061,51.7800948 800.018035,52 798.529488,52 C796.953379,52 795.60495,51.7625024 794.484162,51.2875 Z M811.295905,50.4826389 C810.490338,49.6469866 810.087561,48.4199155 810.087561,46.8013889 L810.087561,40.8375 L808.012362,40.8375 C807.837238,40.8375 807.688386,40.7759265 807.5658,40.6527778 C807.443213,40.529629 807.381921,40.3800935 807.381921,40.2041667 L807.381921,38.6472222 C807.381921,38.4712954 807.443213,38.3217599 807.5658,38.1986111 C807.688386,38.0754623 807.837238,38.0138889 808.012362,38.0138889 L810.087561,38.0138889 L810.087561,33.6333333 C810.087561,33.4398138 810.148853,33.2858802 810.27144,33.1715278 C810.394026,33.0571754 810.542878,33 810.718002,33 L812.898275,33 C813.09091,33 813.244141,33.0571754 813.357971,33.1715278 C813.471801,33.2858802 813.528715,33.4398138 813.528715,33.6333333 L813.528715,38.0138889 L816.812259,38.0138889 C816.987382,38.0138889 817.136234,38.0754623 817.25882,38.1986111 C817.381407,38.3217599 817.442699,38.4712954 817.442699,38.6472222 L817.442699,40.2041667 C817.442699,40.3800935 817.381407,40.529629 817.25882,40.6527778 C817.136234,40.7759265 816.987382,40.8375 816.812259,40.8375 L813.528715,40.8375 L813.528715,46.5111111 C813.528715,47.2675964 813.660055,47.8393499 813.92274,48.2263889 C814.185425,48.6134279 814.61447,48.8069444 815.209889,48.8069444 L817.048674,48.8069444 C817.241309,48.8069444 817.39454,48.8641198 817.50837,48.9784722 C817.6222,49.0928246 817.679114,49.2467583 817.679114,49.4402778 L817.679114,51.1027778 C817.679114,51.2787046 817.6222,51.4282401 817.50837,51.5513889 C817.39454,51.6745377 817.241309,51.7361111 817.048674,51.7361111 L814.894669,51.7361111 C813.301048,51.7361111 812.101472,51.3182912 811.295905,50.4826389 Z M821.527427,51.4590278 C820.783154,51.0983778 820.1965,50.6101883 819.767448,49.9944444 C819.338396,49.3787006 819.123873,48.7013926 819.123873,47.9625 C819.123873,46.7661977 819.605455,45.7986148 820.568633,45.0597222 C821.53181,44.3208296 822.85397,43.8194458 824.535153,43.5555556 L828.133917,43.0277778 L828.133917,42.4736111 C828.133917,41.7171258 827.941284,41.1453723 827.556013,40.7583333 C827.170742,40.3712944 826.55782,40.1777778 825.717229,40.1777778 C825.139322,40.1777778 824.675253,40.2833323 824.325006,40.4944444 C823.97476,40.7055566 823.690189,40.9210637 823.471285,41.1409722 L823.037857,41.5763889 C822.967808,41.7875011 822.836468,41.8930556 822.643832,41.8930556 L820.594901,41.8930556 C820.43729,41.8930556 820.301572,41.8402783 820.187741,41.7347222 C820.073911,41.6291661 820.016997,41.4884268 820.016997,41.3125 C820.034509,40.872683 820.249032,40.3756972 820.660572,39.8215278 C821.072111,39.2673583 821.706923,38.7835669 822.565027,38.3701389 C823.423131,37.9567109 824.48261,37.75 825.743497,37.75 C827.809951,37.75 829.315988,38.216199 830.261653,39.1486111 C831.207319,40.0810232 831.680144,41.3036961 831.680144,42.8166667 L831.680144,51.1027778 C831.680144,51.2787046 831.62323,51.4282401 831.5094,51.5513889 C831.39557,51.6745377 831.242339,51.7361111 831.049704,51.7361111 L828.869431,51.7361111 C828.694308,51.7361111 828.545455,51.6745377 828.422869,51.5513889 C828.300283,51.4282401 828.23899,51.2787046 828.23899,51.1027778 L828.23899,50.0736111 C827.853719,50.6365769 827.310846,51.0983778 826.610353,51.4590278 C825.90986,51.8196777 825.034257,52 823.983518,52 C823.09039,52 822.271701,51.8196777 821.527427,51.4590278 Z M827.240793,48.5166667 C827.853724,47.8833302 828.160185,46.9685245 828.160185,45.7722222 L828.160185,45.2444444 L825.533351,45.6666667 C823.519434,45.9833349 822.51249,46.660643 822.51249,47.6986111 C822.51249,48.2615769 822.744525,48.6969892 823.208602,49.0048611 C823.672678,49.312733 824.228686,49.4666667 824.876642,49.4666667 C825.839819,49.4666667 826.627862,49.1500032 827.240793,48.5166667 Z M835.226371,51.5513889 C835.103785,51.4282401 835.042493,51.2787046 835.042493,51.1027778 L835.042493,38.6736111 C835.042493,38.4800916 835.103785,38.3217599 835.226371,38.1986111 C835.348958,38.0754623 835.49781,38.0138889 835.672933,38.0138889 L837.826938,38.0138889 C838.019573,38.0138889 838.177182,38.0754623 838.299768,38.1986111 C838.422354,38.3217599 838.483647,38.4800916 838.483647,38.6736111 L838.483647,39.7555556 C839.359263,38.5944386 840.620131,38.0138889 842.266289,38.0138889 L843.36956,38.0138889 C843.562195,38.0138889 843.715426,38.0710642 843.829256,38.1854167 C843.943086,38.2997691 844,38.4537027 844,38.6472222 L844,40.5736111 C844,40.7495379 843.943086,40.8990735 843.829256,41.0222222 C843.715426,41.145371 843.562195,41.2069444 843.36956,41.2069444 L841.29436,41.2069444 C840.471281,41.2069444 839.823335,41.4444421 839.350502,41.9194444 C838.87767,42.3944468 838.641257,43.0453662 838.641257,43.8722222 L838.641257,51.1027778 C838.641257,51.2787046 838.579965,51.4282401 838.457378,51.5513889 C838.334792,51.6745377 838.18594,51.7361111 838.010816,51.7361111 L835.672933,51.7361111 C835.49781,51.7361111 835.348958,51.6745377 835.226371,51.5513889 Z" id="JobStar"></path>
        </g>
    </g>
</svg>