<svg xmlns="http://www.w3.org/2000/svg" width="21" height="23" viewBox="0 0 21 23">
    <path fill="#FFF" fill-rule="nonzero" d="M10.163 0C6.858 0 4.135 2.197 3.827 4.996a1.7 1.7 0 0 1 .974.015C5.096 2.67 7.388.842 10.163.842c2.793 0 5.097 1.852 5.368 4.214a1.691 1.691 0 0 1 .972-.013C16.221 2.222 13.486 0 10.163 0zm.02 1.54c-1.243 0-2.18.329-2.88.858-.042.017-.082.036-.123.054a4.449 4.449 0 0 0-1.632 2.65c-.012.078-.02.161-.03.244.339.31.538.74.538 1.206v2.012a1.6 1.6 0 0 1-.245.84c.023.009.046.02.07.023.765 1.996 2.404 3.882 4.302 3.882.987 0 1.901-.512 2.661-1.28a4.743 4.743 0 0 1-1.087-.148c-.197.09-.415.14-.638.14-.812 0-1.473-.633-1.473-1.41 0-.778.66-1.41 1.473-1.41.597 0 1.112.34 1.342.832a2.656 2.656 0 0 0 1.934-.387c.032-.075.065-.15.094-.227.009-.002.019-.01.028-.013a1.614 1.614 0 0 1-.246-.843V6.551c0-.466.2-.897.54-1.206-.009-.075-.017-.15-.027-.222a4.447 4.447 0 0 0-1.638-2.671c-.024-.01-.047-.023-.072-.034-.703-.54-1.643-.878-2.89-.878zM4.198 5.36c-.162 0-.317.024-.462.07-.553.172-.951.645-.951 1.202v1.747c0 .599.46 1.101 1.08 1.236a1.565 1.565 0 0 0 .619.01c.643-.12 1.127-.632 1.127-1.246V6.632c0-.54-.374-1.001-.901-1.186a1.547 1.547 0 0 0-.512-.086zm11.934.007c-.179 0-.35.03-.508.085-.529.184-.905.646-.905 1.187v1.747c0 .498.319.929.782 1.137-.605.751-1.56 1.199-2.557 1.199-.353 0-.698-.055-1.028-.162a.784.784 0 0 0-.796-.715c-.441 0-.8.343-.8.765 0 .423.359.767.8.767a.813.813 0 0 0 .536-.2c.416.14.85.21 1.286.21 1.353 0 2.585-.647 3.308-1.733l.1-.01c.677-.095 1.195-.622 1.195-1.258V6.64c0-.556-.396-1.029-.949-1.202a1.552 1.552 0 0 0-.464-.07zM4.975 12.844a6.65 6.65 0 0 0-3.325 2.06A6.689 6.689 0 0 0 0 19.309c0 1.691.617 2.717 1.942 3.229C3.14 23 4.822 23 6.6 23h6.924c1.78 0 3.46 0 4.659-.463 1.324-.512 1.941-1.538 1.941-3.23a6.69 6.69 0 0 0-1.65-4.402 6.649 6.649 0 0 0-3.324-2.061h-1.116c-.02.131-.062.263-.127.394-.477 1.206-2.025 3.504-2.939 4.812l-.13-1.874a.834.834 0 0 0-.146-1.654h-1.26a.833.833 0 0 0-.146 1.655l-.13 1.873c-.913-1.306-2.46-3.602-2.94-4.814a1.327 1.327 0 0 1-.125-.392H4.975z"/>
</svg>
