<svg xmlns="http://www.w3.org/2000/svg" width="25" height="20" viewBox="0 0 25 20">
    <path fill="#FFF" fill-rule="evenodd" d="M13.965 8.528C17.88 4.156 19.528 2.326 21.06.666c.302-.343.706-.57 1.148-.644.865-.13 1.69.314 2.076 1.1a2.112 2.112 0 0 1-.338 2.362c-1.534 1.663-3.146 3.455-7.167 7.949-3.946 4.409-5.605 6.253-7.158 7.937a1.938 1.938 0 0 1-2.74.12l-5.572-5.103a2.095 2.095 0 0 1-.78-2 2.037 2.037 0 0 1 1.37-1.625c.716-.23 1.496-.022 1.94.461l4.228 3.864c1.294-1.42 2.865-3.17 5.9-6.56z"/>
</svg>
