<?xml version="1.0" encoding="UTF-8"?>
<svg width="235px" height="210px" viewBox="0 0 235 210" version="1.1" xmlns="http://www.w3.org/2000/svg" xmlns:xlink="http://www.w3.org/1999/xlink">
    <!-- Generator: Sketch 47.1 (45422) - http://www.bohemiancoding.com/sketch -->
    <title>currency</title>
    <desc>Created with Sketch.</desc>
    <defs>
        <filter x="-196.9%" y="-140.6%" width="493.8%" height="493.8%" filterUnits="objectBoundingBox" id="filter-1">
            <feOffset dx="0" dy="18" in="SourceAlpha" result="shadowOffsetOuter1"></feOffset>
            <feGaussianBlur stdDeviation="17" in="shadowOffsetOuter1" result="shadowBlurOuter1"></feGaussianBlur>
            <feColorMatrix values="0 0 0 0 0   0 0 0 0 0   0 0 0 0 0  0 0 0 0.219825634 0" type="matrix" in="shadowBlurOuter1" result="shadowMatrixOuter1"></feColorMatrix>
            <feMerge>
                <feMergeNode in="shadowMatrixOuter1"></feMergeNode>
                <feMergeNode in="SourceGraphic"></feMergeNode>
            </feMerge>
        </filter>
        <circle id="path-2" cx="16" cy="16" r="16"></circle>
        <filter x="-196.9%" y="-140.6%" width="493.8%" height="493.8%" filterUnits="objectBoundingBox" id="filter-3">
            <feOffset dx="0" dy="18" in="SourceAlpha" result="shadowOffsetOuter1"></feOffset>
            <feGaussianBlur stdDeviation="17" in="shadowOffsetOuter1" result="shadowBlurOuter1"></feGaussianBlur>
            <feColorMatrix values="0 0 0 0 0   0 0 0 0 0   0 0 0 0 0  0 0 0 0.219825634 0" type="matrix" in="shadowBlurOuter1" result="shadowMatrixOuter1"></feColorMatrix>
            <feMerge>
                <feMergeNode in="shadowMatrixOuter1"></feMergeNode>
                <feMergeNode in="SourceGraphic"></feMergeNode>
            </feMerge>
        </filter>
        <circle id="path-4" cx="16" cy="16" r="16"></circle>
        <filter x="-196.9%" y="-140.6%" width="493.8%" height="493.8%" filterUnits="objectBoundingBox" id="filter-5">
            <feOffset dx="0" dy="18" in="SourceAlpha" result="shadowOffsetOuter1"></feOffset>
            <feGaussianBlur stdDeviation="17" in="shadowOffsetOuter1" result="shadowBlurOuter1"></feGaussianBlur>
            <feColorMatrix values="0 0 0 0 0   0 0 0 0 0   0 0 0 0 0  0 0 0 0.219825634 0" type="matrix" in="shadowBlurOuter1" result="shadowMatrixOuter1"></feColorMatrix>
            <feMerge>
                <feMergeNode in="shadowMatrixOuter1"></feMergeNode>
                <feMergeNode in="SourceGraphic"></feMergeNode>
            </feMerge>
        </filter>
        <circle id="path-6" cx="16" cy="16" r="16"></circle>
    </defs>
    <g id="website-v2" stroke="none" stroke-width="1" fill="none" fill-rule="evenodd">
        <g id="business-1" transform="translate(-824.000000, -874.000000)">
            <g id="Group-12" transform="translate(0.000000, 581.000000)">
                <g id="Group-14" transform="translate(407.000000, 84.000000)">
                    <g id="currency" transform="translate(417.000000, 210.000000)">
                        <g id="intro_piggy" transform="translate(113.500000, 84.000000) scale(-1, 1) translate(-113.500000, -84.000000) translate(12.000000, 0.000000)">
                            <ellipse id="Oval-4" stroke="#FFFFFF" cx="190.356207" cy="2.51759325" rx="2.42261319" ry="2.51759325"></ellipse>
                            <ellipse id="Oval-4-Copy-2" stroke="#FFFFFF" cx="2.42261319" cy="161.008159" rx="2.42261319" ry="2.51759325"></ellipse>
                            <ellipse id="Oval-4-Copy-3" fill="#FFFFFF" cx="199.684516" cy="164.807369" rx="3.02826649" ry="3.14699156"></ellipse>
                        </g>
                        <g id="Group" transform="translate(0.000000, 40.000000)">
                            <g id="Group-5">
                                <g id="Group-3" transform="translate(35.773986, 7.545714)">
                                    <path d="M136.341031,0.486388443 L8.66362902,0.486388443 C4.16767792,0.486388443 0.480147881,4.24121556 0.480147881,8.82678363 L0.480147881,77.7503592 C0.480147881,82.3359273 4.16767792,86.0907544 8.66362902,86.0907544 L136.341031,86.0907544 C140.836982,86.0907544 144.524512,82.3359273 144.524512,77.7503592 L144.524512,8.82678363 C144.524512,4.24121556 140.836982,0.486388443 136.341031,0.486388443 Z" id="Path" fill="#5C4B73"></path>
                                    <path d="M132.788453,4.21462279 L12.216207,4.21462279 C7.97045236,4.21462279 4.48813073,7.64239006 4.48813073,11.8285376 L4.48813073,74.7486053 C4.48813073,78.9347528 7.97045236,82.3625201 12.216207,82.3625201 L132.788453,82.3625201 C137.034208,82.3625201 140.516529,78.9347528 140.516529,74.7486053 L140.516529,11.8285376 C140.516529,7.64239006 137.034208,4.21462279 132.788453,4.21462279 Z" id="Path" fill="#FFFFFF"></path>
                                    <path d="M140.683329,9.02858547 L140.683329,27.7241413 L139.081614,27.7241413 C126.845741,27.7241413 116.848739,17.98883 116.676085,5.85769634 L116.655018,4.37749599 L136.178736,4.37749599 C138.615815,4.37749599 140.683329,6.49661102 140.683329,9.02858547 Z" id="Path" fill="#B46155"></path>
                                    <path d="M8.96276045,4.37749599 L28.3494824,4.37749599 L28.3285776,5.85753702 C28.1572657,17.9862432 18.2333621,27.7241413 6.08187316,27.7241413 L4.32133093,27.7241413 L4.32133093,9.02858547 C4.32133093,6.46196397 6.41171661,4.37749599 8.96276045,4.37749599 Z" id="Path" fill="#B46155"></path>
                                    <path d="M4.32133093,77.5485574 L4.32133093,58.8530016 L5.92304562,58.8530016 C18.1589189,58.8530016 28.1559212,68.5883129 28.3285753,80.7194465 L28.349642,82.1996469 L8.98719545,82.1996469 C6.42511047,82.1996469 4.32133093,80.1177156 4.32133093,77.5485574 Z" id="Path" fill="#B46155"></path>
                                    <path d="M110.483456,80.2540931 C111.351178,65.2978569 123.176152,53.3534038 137.802442,52.6915196 L137.802442,34.8584002 C123.176152,34.1965159 111.351178,22.2520629 110.483456,7.29582665 L34.5212045,7.29582665 C33.6534825,22.2520629 21.8285083,34.1965159 7.20221822,34.8584002 L7.20221822,52.684732 C21.9022124,53.2663733 33.8103691,65.2433442 34.6812537,80.2540931 L110.483456,80.2540931 Z" id="Path" fill="#FFFFFF"></path>
                                    <path d="M31.8498906,81.7287464 C31.6982475,67.25711 20.1791789,55.5809339 6.08187316,55.5809339 L4.32133093,55.5809339 L4.32133093,31.9689858 L5.92182387,31.9689858 C20.0191297,31.9689858 31.5381982,20.2928097 31.6898413,5.82117339 L31.7049691,4.37749599 L113.299691,4.37749599 L113.314819,5.82117339 C113.466462,20.2928097 124.98553,31.9689858 139.082836,31.9689858 L140.683329,31.9689858 L140.683329,55.5809339 L139.082836,55.5809339 C124.98553,55.5809339 113.466462,67.25711 113.314819,81.7287464 L113.299691,83.1724238 L31.8650184,83.1724238 L31.8498906,81.7287464 Z" id="Path" fill="#B46155"></path>
                                    <path d="M136.168259,82.1996469 L116.65503,82.1996469 L116.676085,80.7194587 C116.848636,68.5885109 126.840043,58.8530016 139.069453,58.8530016 L140.671075,58.8530016 L140.671075,77.4876145 C140.864924,80.0701755 138.763935,82.1996469 136.168259,82.1996469 Z" id="Path" fill="#B46155"></path>
                                </g>
                                <ellipse id="Oval" fill="#BEBECF" fill-rule="nonzero" cx="203.981393" cy="6.48948328" rx="6.46635576" ry="6.48948328"></ellipse>
                                <ellipse id="Oval" fill="#BEBECF" fill-rule="nonzero" cx="6.46635576" cy="57.323769" rx="6.46635576" ry="6.48948328"></ellipse>
                                <ellipse id="Oval-Copy" fill="#BEBECF" fill-rule="nonzero" cx="108.793423" cy="131.986626" rx="6.46635576" ry="6.48948328"></ellipse>
                                <path d="M107.955116,35.2968508 C110.118206,35.2968508 112.003129,36.6823984 113.079745,38.9081728 L113.8224,40.4435226 L98.9704218,40.4435226 L98.9704218,43.6945664 L113.718228,43.6945664 L113.105038,45.1735461 C112.186185,47.3897675 110.167699,48.8412382 107.955116,48.8412382 L97.7684877,48.8412382 L114.939968,69.4915502 L116.863694,67.1970861 L104.291311,52.2234963 L106.558801,52.2234963 L108.177909,52.2239687 C111.967908,52.1087427 115.149633,49.0883094 116.074217,44.6680413 L116.250392,43.8257807 L122.017322,43.8257807 L122.017322,40.5747369 L116.277381,40.5747369 L116.081621,39.7653176 C115.866889,38.8774529 115.53864,37.9212204 115.118159,36.9070448 L114.504969,35.4280651 L122.017322,35.4280651 L122.017322,32.1770213 L98.9704218,32.1770213 L98.9704218,35.2968508 L107.955116,35.2968508 Z" id="Path" fill="#FFFFFF"></path>
                            </g>
                        </g>
                        <g id="Group-4" filter="url(#filter-1)" transform="translate(36.000000, 21.000000)">
                            <g id="Oval-Copy-4">
                                <use fill="#FFEC36" fill-rule="evenodd" xlink:href="#path-2"></use>
                                <circle stroke="#FFFFFF" stroke-width="3" cx="16" cy="16" r="17.5"></circle>
                            </g>
                            <path d="M14.7689085,10.9377436 C15.6966286,10.9377436 16.5050469,11.531849 16.9667931,12.486233 L17.2853079,13.1445716 L10.9154934,13.1445716 L10.9154934,14.5385783 L17.2406299,14.5385783 L16.9776409,15.1727462 C16.5835572,16.123034 15.7178554,16.7454063 14.7689085,16.7454063 L10.4,16.7454063 L17.764618,25.6 L18.589678,24.6161627 L13.1975515,18.195676 L14.1700475,18.195676 L14.8644614,18.1958786 C16.4899413,18.1464711 17.8545401,16.8513473 18.251082,14.9559921 L18.3266411,14.5948413 L20.8,14.5948413 L20.8,13.2008347 L18.3382162,13.2008347 L18.2542575,12.8537659 C18.1621619,12.4730607 18.0213801,12.0630402 17.8410415,11.6281745 L17.5780525,10.9940066 L20.8,10.9940066 L20.8,9.6 L10.9154934,9.6 L10.9154934,10.9377436 L14.7689085,10.9377436 Z" id="Path" fill="#000000"></path>
                        </g>
                        <g id="Group-4-Copy" filter="url(#filter-3)" transform="translate(168.000000, 83.000000)">
                            <g id="Oval-Copy-4">
                                <use fill="#FFEC36" fill-rule="evenodd" xlink:href="#path-4"></use>
                                <circle stroke="#FFFFFF" stroke-width="3" cx="16" cy="16" r="17.5"></circle>
                            </g>
                            <path d="M14.7689085,10.9377436 C15.6966286,10.9377436 16.5050469,11.531849 16.9667931,12.486233 L17.2853079,13.1445716 L10.9154934,13.1445716 L10.9154934,14.5385783 L17.2406299,14.5385783 L16.9776409,15.1727462 C16.5835572,16.123034 15.7178554,16.7454063 14.7689085,16.7454063 L10.4,16.7454063 L17.764618,25.6 L18.589678,24.6161627 L13.1975515,18.195676 L14.1700475,18.195676 L14.8644614,18.1958786 C16.4899413,18.1464711 17.8545401,16.8513473 18.251082,14.9559921 L18.3266411,14.5948413 L20.8,14.5948413 L20.8,13.2008347 L18.3382162,13.2008347 L18.2542575,12.8537659 C18.1621619,12.4730607 18.0213801,12.0630402 17.8410415,11.6281745 L17.5780525,10.9940066 L20.8,10.9940066 L20.8,9.6 L10.9154934,9.6 L10.9154934,10.9377436 L14.7689085,10.9377436 Z" id="Path" fill="#000000"></path>
                        </g>
                        <g id="Group-4-Copy-2" filter="url(#filter-5)" transform="translate(52.000000, 124.000000)">
                            <g id="Oval-Copy-4">
                                <use fill="#FFEC36" fill-rule="evenodd" xlink:href="#path-6"></use>
                                <circle stroke="#FFFFFF" stroke-width="3" cx="16" cy="16" r="17.5"></circle>
                            </g>
                            <path d="M14.7689085,10.9377436 C15.6966286,10.9377436 16.5050469,11.531849 16.9667931,12.486233 L17.2853079,13.1445716 L10.9154934,13.1445716 L10.9154934,14.5385783 L17.2406299,14.5385783 L16.9776409,15.1727462 C16.5835572,16.123034 15.7178554,16.7454063 14.7689085,16.7454063 L10.4,16.7454063 L17.764618,25.6 L18.589678,24.6161627 L13.1975515,18.195676 L14.1700475,18.195676 L14.8644614,18.1958786 C16.4899413,18.1464711 17.8545401,16.8513473 18.251082,14.9559921 L18.3266411,14.5948413 L20.8,14.5948413 L20.8,13.2008347 L18.3382162,13.2008347 L18.2542575,12.8537659 C18.1621619,12.4730607 18.0213801,12.0630402 17.8410415,11.6281745 L17.5780525,10.9940066 L20.8,10.9940066 L20.8,9.6 L10.9154934,9.6 L10.9154934,10.9377436 L14.7689085,10.9377436 Z" id="Path" fill="#000000"></path>
                        </g>
                        <g id="Group-6" transform="translate(92.000000, 11.000000)" stroke="#FFFFFF" stroke-width="3" stroke-linecap="round">
                            <path d="M7.5,16.2586207 L0,0" id="Line"></path>
                            <path d="M74.6052632,160.603448 L67.1052632,144.344828" id="Line-Copy"></path>
                            <path d="M63.1578947,27.7586207 L55.6578947,17.8448276" id="Line-Copy-2" transform="translate(59.210526, 22.603448) scale(-1, 1) translate(-59.210526, -22.603448) "></path>
                        </g>
                    </g>
                </g>
            </g>
        </g>
    </g>
</svg>