<?xml version="1.0" encoding="UTF-8"?>
<svg width="30px" height="31px" viewBox="0 0 30 31" version="1.1" xmlns="http://www.w3.org/2000/svg" xmlns:xlink="http://www.w3.org/1999/xlink">
    <!-- Generator: Sketch 47.1 (45422) - http://www.bohemiancoding.com/sketch -->
    <title>icon-whatsapp</title>
    <desc>Created with Sketch.</desc>
    <defs></defs>
    <g id="website-v2" stroke="none" stroke-width="1" fill="none" fill-rule="evenodd">
        <g id="home-2" transform="translate(-740.000000, -823.000000)" fill="#00A100">
            <g id="Group-18" transform="translate(584.000000, 202.000000)">
                <g id="Group-11" transform="translate(0.000000, 64.000000)">
                    <g id="Group-17-Copy" transform="translate(17.000000, 557.000000)">
                        <g id="Group-20" transform="translate(139.000000, 0.000000)">
                            <g id="icon-whatsapp" transform="translate(0.000000, 0.637820)">
                                <path d="M10.0195835,6.99103448 C10.0066314,6.9933735 9.9938435,6.99654489 9.98129936,7.00052895 C8.67342138,7.40223664 7.79052539,8.09499559 7.31098147,8.98174786 C6.83143448,9.86850014 6.76142047,10.9248052 6.97599535,12.025336 C7.40515093,14.2264283 8.9676643,16.6611763 10.9479736,18.6867742 C12.9282826,20.7123721 15.3285932,22.3241032 17.5424146,22.7831759 C18.6493254,23.0127275 19.7156636,22.9481039 20.6338579,22.4673471 C21.5520552,21.9865597 22.2955486,21.0937126 22.768198,19.7587298 C22.8123705,19.6261293 22.7611815,19.4804438 22.6437746,19.4046169 L18.260242,16.6577154 C18.2510394,16.650853 18.2414584,16.6445134 18.2315442,16.6387265 L18.2124021,16.6197376 C18.2092171,16.6196879 18.2060314,16.6196879 18.2028464,16.6197376 C18.1965781,16.6163511 18.1901935,16.6131844 18.1837043,16.6102431 C18.1805193,16.6101934 18.1773337,16.6101934 18.1741486,16.6102431 C18.1591069,16.5992093 18.1430886,16.5895727 18.1262934,16.5814535 C18.1231084,16.5814038 18.1199228,16.5814038 18.1167377,16.5814535 C18.1103586,16.581254 18.1039748,16.581254 18.0975957,16.5814535 C18.0944106,16.5814038 18.091225,16.5814038 18.0880399,16.5814535 C18.0692427,16.5764729 18.0500138,16.5732938 18.0306138,16.571959 C18.0112137,16.5732938 17.9919849,16.5764729 17.9731876,16.5814535 C17.9202836,16.5908137 17.8707721,16.6139243 17.8296221,16.648466 C17.8262181,16.6546832 17.8230309,16.6610166 17.8200664,16.6674549 C17.8018299,16.6845714 17.7857586,16.7038571 17.7722112,16.7248811 L16.6428291,17.8446765 C14.6816742,16.9215697 13.2267579,15.3036212 11.9338814,13.1165868 L12.9771239,12.073329 L13.0249791,12.0254891 C13.0316354,12.0194435 13.0380223,12.0131078 13.0441211,12.0065002 C13.0473062,12.0065499 13.0504918,12.0065499 13.0536769,12.0065002 C13.0570809,12.000283 13.060268,11.9939496 13.0632326,11.9875113 C13.066487,11.9844169 13.069673,11.9812513 13.0727883,11.9780168 C13.0761923,11.9717997 13.0793794,11.9654662 13.082344,11.9590279 C13.0823931,11.9558633 13.0823931,11.9526981 13.082344,11.9495334 C13.0855985,11.946439 13.0887845,11.9432735 13.0918997,11.940039 C13.0953037,11.9338218 13.0984909,11.9274883 13.1014555,11.92105 C13.1047099,11.9179557 13.1078959,11.9147901 13.1110112,11.9115556 C13.1112074,11.9052275 13.1112074,11.8988948 13.1110112,11.8925667 C13.1112074,11.8862385 13.1112074,11.8799058 13.1110112,11.8735777 C13.1142656,11.8704833 13.1174516,11.8673177 13.1205669,11.8640833 C13.1207631,11.8577551 13.1207631,11.8514225 13.1205669,11.8450943 C13.1206159,11.8419297 13.1206159,11.8387645 13.1205669,11.8355999 C13.1207631,11.8292717 13.1207631,11.8229391 13.1205669,11.8166109 C13.1206159,11.8134463 13.1206159,11.8102811 13.1205669,11.8071165 C13.1207631,11.8007884 13.1207631,11.7944557 13.1205669,11.7881276 C13.1206159,11.7849629 13.1206159,11.7817977 13.1205669,11.7786331 C13.1207631,11.772305 13.1207631,11.7659723 13.1205669,11.7596442 C13.1206159,11.7564795 13.1206159,11.7533143 13.1205669,11.7501497 C13.1176023,11.7437114 13.1144152,11.7373779 13.1110112,11.7311608 C13.1110602,11.7279961 13.1110602,11.7248309 13.1110112,11.7216663 C13.1080466,11.715228 13.1048594,11.7088946 13.1014555,11.7026774 C13.1015045,11.6995127 13.1015045,11.6963475 13.1014555,11.6931829 C13.0953566,11.6865754 13.0889697,11.6802396 13.0823134,11.674194 C13.0823624,11.6710294 13.0823624,11.6678642 13.0823134,11.6646995 C13.0791981,11.661465 13.0760121,11.6582994 13.0727577,11.6552051 C13.0622005,11.6346818 13.0493576,11.6154175 13.0344735,11.5977789 C13.0313583,11.5945444 13.0281723,11.5913788 13.0249178,11.5882844 L10.3354579,7.13773926 C10.2814832,7.05154526 10.1882472,6.99776099 10.086611,6.99418909 C10.0643458,6.99173939 10.041879,6.99173939 10.0196138,6.99418909 L10.0195835,6.99103448 Z" id="Path"></path>
                                <path d="M14.8275862,0.124886207 C6.64466897,0.124886207 -1.72413793e-07,6.76610345 -1.72413793e-07,14.9524828 C-1.72413793e-07,17.9825517 0.913103276,20.8064483 2.52306172,23.2229655 L0.780065345,29.0397586 C0.74298866,29.1636644 0.778357066,29.2978994 0.871675158,29.3874487 C0.964993251,29.4769979 1.10057151,29.5068055 1.22284448,29.4646552 L6.92068931,27.4982759 C9.20439621,28.9429655 11.9208066,29.780069 14.8275862,29.780069 C23.0138724,29.780069 29.6551724,23.1387586 29.6551724,14.9524828 C29.6551724,6.76617241 23.0138724,0.124886207 14.8275862,0.124886207 L14.8275862,0.124886207 Z M14.8275862,0.814541379 C22.6413003,0.814541379 28.9655172,7.13875862 28.9655172,14.9524828 C28.9655172,22.7662069 22.6413003,29.0904138 14.8275862,29.0904138 C11.9951031,29.0904138 9.35763069,28.2591034 7.15323448,26.8287586 C7.06413755,26.7709808 6.95339053,26.7574719 6.85301724,26.7921379 L1.63372759,28.5934138 L3.23027931,23.2653103 C3.26012167,23.1657326 3.24345407,23.0580064 3.18491379,22.9721034 C1.59032414,20.6324483 0.689655,17.8993103 0.689655,14.9524828 C0.689655,7.13886207 7.0174,0.814541379 14.8275862,0.814541379 L14.8275862,0.814541379 Z" id="Shape"></path>
                            </g>
                        </g>
                    </g>
                </g>
            </g>
        </g>
    </g>
</svg>