<?xml version="1.0" encoding="UTF-8"?>
<svg width="102px" height="19px" viewBox="0 0 102 19" version="1.1" xmlns="http://www.w3.org/2000/svg" xmlns:xlink="http://www.w3.org/1999/xlink">
    <!-- Generator: Sketch 47.1 (45422) - http://www.bohemiancoding.com/sketch -->
    <title>logo-yellow</title>
    <desc>Created with Sketch.</desc>
    <defs></defs>
    <g id="website-v2" stroke="none" stroke-width="1" fill="none" fill-rule="evenodd">
        <g id="business-1" transform="translate(-404.000000, -23.000000)" fill="#FFDA46">
            <path d="M407.638166,41.3402778 C406.561159,40.9004608 405.694312,40.2407451 405.0376,39.3611111 C404.380888,38.4814771 404.035025,37.4171359 404,36.1680556 C404,36.0097214 404.052536,35.8733802 404.15761,35.7590278 C404.262684,35.6446754 404.40278,35.5875 404.577904,35.5875 L407.125934,35.5875 C407.528717,35.5875 407.782642,35.8074052 407.887716,36.2472222 C408.027814,37.1620416 408.399945,37.8393497 409.004121,38.2791667 C409.608296,38.7189837 410.374448,38.9388889 411.302601,38.9388889 C412.388365,38.9388889 413.224566,38.5826425 413.811228,37.8701389 C414.397891,37.1576353 414.691218,36.1592657 414.691218,34.875 L414.691218,26.4305556 L405.786248,26.4305556 C405.611125,26.4305556 405.462272,26.3689821 405.339686,26.2458333 C405.2171,26.1226846 405.155807,25.9643528 405.155807,25.7708333 L405.155807,23.8972222 C405.155807,23.7037027 405.2171,23.5497691 405.339686,23.4354167 C405.462272,23.3210642 405.611125,23.2638889 405.786248,23.2638889 L417.84342,23.2638889 C418.036056,23.2638889 418.189286,23.3254623 418.303116,23.4486111 C418.416946,23.5717599 418.47386,23.7300916 418.47386,23.9236111 L418.47386,34.9805556 C418.47386,36.440748 418.176155,37.6986058 417.580737,38.7541667 C416.985318,39.8097275 416.140361,40.6145806 415.045841,41.16875 C413.951321,41.7229194 412.668563,42 411.197528,42 C409.901616,42 408.715174,41.7800948 407.638166,41.3402778 Z M423.386042,40.4166667 C422.265253,39.3611058 421.661087,37.9009352 421.573526,36.0361111 L421.547257,34.875 L421.573526,33.7138889 C421.661087,31.8666574 422.274009,30.410885 423.41231,29.3465278 C424.550611,28.2821706 426.135452,27.75 428.166881,27.75 C430.180798,27.75 431.756883,28.2821706 432.895184,29.3465278 C434.033485,30.410885 434.646407,31.8666574 434.733969,33.7138889 C434.751481,33.9250011 434.760237,34.3120342 434.760237,34.875 C434.760237,35.4379658 434.751481,35.8249989 434.733969,36.0361111 C434.646407,37.9009352 434.042241,39.3611058 432.921452,40.4166667 C431.800664,41.4722275 430.215823,42 428.166881,42 C426.100427,42 424.50683,41.4722275 423.386042,40.4166667 Z M430.307752,38.4638889 C430.806853,37.8833304 431.073912,37.0300982 431.108936,35.9041667 C431.126449,35.7282399 431.135205,35.3851877 431.135205,34.875 C431.135205,34.3648123 431.126449,34.0217601 431.108936,33.8458333 C431.073912,32.7199018 430.802475,31.8622715 430.294618,31.2729167 C429.78676,30.6835619 429.077522,30.3888889 428.166881,30.3888889 C427.238728,30.3888889 426.520734,30.6835619 426.012877,31.2729167 C425.505019,31.8622715 425.233582,32.7199018 425.198558,33.8458333 L425.172289,34.875 L425.198558,35.9041667 C425.233582,37.0300982 425.505019,37.8833304 426.012877,38.4638889 C426.520734,39.0444473 427.238728,39.3347222 428.166881,39.3347222 C429.095034,39.3347222 429.808651,39.0444473 430.307752,38.4638889 Z M441.090909,40.1263889 L441.090909,41.1027778 C441.090909,41.2787046 441.029617,41.4282401 440.907031,41.5513889 C440.784444,41.6745377 440.626836,41.7361111 440.4342,41.7361111 L438.332732,41.7361111 C438.157609,41.7361111 438.008757,41.6745377 437.88617,41.5513889 C437.763584,41.4282401 437.702292,41.2787046 437.702292,41.1027778 L437.702292,23.6333333 C437.702292,23.4398138 437.763584,23.2858802 437.88617,23.1715278 C438.008757,23.0571754 438.157609,23 438.332732,23 L440.618079,23 C440.810714,23 440.963945,23.0571754 441.077775,23.1715278 C441.191605,23.2858802 441.248519,23.4398138 441.248519,23.6333333 L441.248519,29.4916667 C442.229209,28.3305498 443.568882,27.75 445.267577,27.75 C447.036321,27.75 448.397883,28.3261516 449.352305,29.4784722 C450.306726,30.6307928 450.810198,32.1393425 450.862735,34.0041667 C450.880247,34.2152788 450.889003,34.5055537 450.889003,34.875 C450.889003,35.2268536 450.880247,35.5171285 450.862735,35.7458333 C450.792686,37.6458428 450.284836,39.1631888 449.339171,40.2979167 C448.393505,41.4326446 447.036321,42 445.267577,42 C443.446295,42 442.054087,41.3754692 441.090909,40.1263889 Z M447.263971,35.6666667 C447.281483,35.4907399 447.29024,35.2268536 447.29024,34.875 C447.29024,34.5231464 447.281483,34.2592601 447.263971,34.0833333 C447.141385,31.7610995 446.143198,30.6 444.269379,30.6 C443.306202,30.6 442.570695,30.9078673 442.062838,31.5236111 C441.554981,32.1393549 441.283544,32.8870326 441.248519,33.7666667 C441.231007,33.9777788 441.222251,34.320831 441.222251,34.7958333 C441.222251,35.253243 441.231007,35.5874989 441.248519,35.7986111 C441.283544,36.7310232 441.546225,37.5226819 442.03657,38.1736111 C442.526915,38.8245403 443.271177,39.15 444.269379,39.15 C446.143198,39.15 447.141385,37.9889005 447.263971,35.6666667 Z M456.484162,41.2875 C455.363373,40.8124976 454.514038,40.1879668 453.936132,39.4138889 C453.358225,38.6398109 453.051764,37.7953749 453.01674,36.8805556 C453.01674,36.7398141 453.069276,36.6122691 453.17435,36.4979167 C453.279424,36.3835642 453.410764,36.3263889 453.568375,36.3263889 L455.958795,36.3263889 C456.15143,36.3263889 456.309039,36.3703699 456.431625,36.4583333 C456.554211,36.5462967 456.66804,36.6694437 456.773114,36.8277778 C456.948237,37.4259289 457.346636,37.9273128 457.968323,38.3319444 C458.590011,38.7365761 459.443724,38.9388889 460.529488,38.9388889 C461.75535,38.9388889 462.679111,38.732178 463.300798,38.31875 C463.922486,37.905322 464.233325,37.3379666 464.233325,36.6166667 C464.233325,36.1416643 464.075716,35.7458349 463.760494,35.4291667 C463.445273,35.1124984 462.968069,34.8354179 462.328869,34.5979167 C461.68967,34.3604155 460.739641,34.0745387 459.478754,33.7402778 C457.4123,33.2476827 455.897507,32.5967633 454.934329,31.7875 C453.971152,30.9782367 453.48957,29.8171372 453.48957,28.3041667 C453.48957,27.2837912 453.769763,26.3733836 454.330157,25.5729167 C454.890551,24.7724497 455.691728,24.1435208 456.733711,23.6861111 C457.775694,23.2287014 458.988404,23 460.371877,23 C461.8254,23 463.08189,23.25509 464.141386,23.7652778 C465.200881,24.2754655 466.006436,24.9131906 466.558074,25.6784722 C467.109712,26.4437538 467.403039,27.2046258 467.438063,27.9611111 C467.438063,28.1018526 467.385527,28.2293976 467.280453,28.34375 C467.175379,28.4581024 467.044039,28.5152778 466.886428,28.5152778 L464.390935,28.5152778 C464.005664,28.5152778 463.742983,28.356946 463.602884,28.0402778 C463.515323,27.477312 463.173838,27.0067149 462.578419,26.6284722 C461.983,26.2502296 461.247493,26.0611111 460.371877,26.0611111 C459.4087,26.0611111 458.651303,26.2458315 458.099665,26.6152778 C457.548027,26.9847241 457.272212,27.5212928 457.272212,28.225 C457.272212,28.7000024 457.412309,29.0958318 457.692506,29.4125 C457.972703,29.7291682 458.410504,30.0062488 459.005923,30.24375 C459.601342,30.4812512 460.468189,30.7495355 461.60649,31.0486111 C463.165086,31.4004647 464.404064,31.7962941 465.323461,32.2361111 C466.242858,32.6759281 466.92145,33.2300892 467.359258,33.8986111 C467.797066,34.567133 468.015967,35.4203652 468.015967,36.4583333 C468.015967,37.6018576 467.705128,38.591431 467.083441,39.4270833 C466.461753,40.2627357 465.58615,40.9004608 464.456606,41.3402778 C463.327061,41.7800948 462.018035,42 460.529488,42 C458.953379,42 457.60495,41.7625024 456.484162,41.2875 Z M473.295905,40.4826389 C472.490338,39.6469866 472.087561,38.4199155 472.087561,36.8013889 L472.087561,30.8375 L470.012362,30.8375 C469.837238,30.8375 469.688386,30.7759265 469.5658,30.6527778 C469.443213,30.529629 469.381921,30.3800935 469.381921,30.2041667 L469.381921,28.6472222 C469.381921,28.4712954 469.443213,28.3217599 469.5658,28.1986111 C469.688386,28.0754623 469.837238,28.0138889 470.012362,28.0138889 L472.087561,28.0138889 L472.087561,23.6333333 C472.087561,23.4398138 472.148853,23.2858802 472.27144,23.1715278 C472.394026,23.0571754 472.542878,23 472.718002,23 L474.898275,23 C475.09091,23 475.244141,23.0571754 475.357971,23.1715278 C475.471801,23.2858802 475.528715,23.4398138 475.528715,23.6333333 L475.528715,28.0138889 L478.812259,28.0138889 C478.987382,28.0138889 479.136234,28.0754623 479.25882,28.1986111 C479.381407,28.3217599 479.442699,28.4712954 479.442699,28.6472222 L479.442699,30.2041667 C479.442699,30.3800935 479.381407,30.529629 479.25882,30.6527778 C479.136234,30.7759265 478.987382,30.8375 478.812259,30.8375 L475.528715,30.8375 L475.528715,36.5111111 C475.528715,37.2675964 475.660055,37.8393499 475.92274,38.2263889 C476.185425,38.6134279 476.61447,38.8069444 477.209889,38.8069444 L479.048674,38.8069444 C479.241309,38.8069444 479.39454,38.8641198 479.50837,38.9784722 C479.6222,39.0928246 479.679114,39.2467583 479.679114,39.4402778 L479.679114,41.1027778 C479.679114,41.2787046 479.6222,41.4282401 479.50837,41.5513889 C479.39454,41.6745377 479.241309,41.7361111 479.048674,41.7361111 L476.894669,41.7361111 C475.301048,41.7361111 474.101472,41.3182912 473.295905,40.4826389 Z M483.527427,41.4590278 C482.783154,41.0983778 482.1965,40.6101883 481.767448,39.9944444 C481.338396,39.3787006 481.123873,38.7013926 481.123873,37.9625 C481.123873,36.7661977 481.605455,35.7986148 482.568633,35.0597222 C483.53181,34.3208296 484.85397,33.8194458 486.535153,33.5555556 L490.133917,33.0277778 L490.133917,32.4736111 C490.133917,31.7171258 489.941284,31.1453723 489.556013,30.7583333 C489.170742,30.3712944 488.55782,30.1777778 487.717229,30.1777778 C487.139322,30.1777778 486.675253,30.2833323 486.325006,30.4944444 C485.97476,30.7055566 485.690189,30.9210637 485.471285,31.1409722 L485.037857,31.5763889 C484.967808,31.7875011 484.836468,31.8930556 484.643832,31.8930556 L482.594901,31.8930556 C482.43729,31.8930556 482.301572,31.8402783 482.187741,31.7347222 C482.073911,31.6291661 482.016997,31.4884268 482.016997,31.3125 C482.034509,30.872683 482.249032,30.3756972 482.660572,29.8215278 C483.072111,29.2673583 483.706923,28.7835669 484.565027,28.3701389 C485.423131,27.9567109 486.48261,27.75 487.743497,27.75 C489.809951,27.75 491.315988,28.216199 492.261653,29.1486111 C493.207319,30.0810232 493.680144,31.3036961 493.680144,32.8166667 L493.680144,41.1027778 C493.680144,41.2787046 493.62323,41.4282401 493.5094,41.5513889 C493.39557,41.6745377 493.242339,41.7361111 493.049704,41.7361111 L490.869431,41.7361111 C490.694308,41.7361111 490.545455,41.6745377 490.422869,41.5513889 C490.300283,41.4282401 490.23899,41.2787046 490.23899,41.1027778 L490.23899,40.0736111 C489.853719,40.6365769 489.310846,41.0983778 488.610353,41.4590278 C487.90986,41.8196777 487.034257,42 485.983518,42 C485.09039,42 484.271701,41.8196777 483.527427,41.4590278 Z M489.240793,38.5166667 C489.853724,37.8833302 490.160185,36.9685245 490.160185,35.7722222 L490.160185,35.2444444 L487.533351,35.6666667 C485.519434,35.9833349 484.51249,36.660643 484.51249,37.6986111 C484.51249,38.2615769 484.744525,38.6969892 485.208602,39.0048611 C485.672678,39.312733 486.228686,39.4666667 486.876642,39.4666667 C487.839819,39.4666667 488.627862,39.1500032 489.240793,38.5166667 Z M497.226371,41.5513889 C497.103785,41.4282401 497.042493,41.2787046 497.042493,41.1027778 L497.042493,28.6736111 C497.042493,28.4800916 497.103785,28.3217599 497.226371,28.1986111 C497.348958,28.0754623 497.49781,28.0138889 497.672933,28.0138889 L499.826938,28.0138889 C500.019573,28.0138889 500.177182,28.0754623 500.299768,28.1986111 C500.422354,28.3217599 500.483647,28.4800916 500.483647,28.6736111 L500.483647,29.7555556 C501.359263,28.5944386 502.620131,28.0138889 504.266289,28.0138889 L505.36956,28.0138889 C505.562195,28.0138889 505.715426,28.0710642 505.829256,28.1854167 C505.943086,28.2997691 506,28.4537027 506,28.6472222 L506,30.5736111 C506,30.7495379 505.943086,30.8990735 505.829256,31.0222222 C505.715426,31.145371 505.562195,31.2069444 505.36956,31.2069444 L503.29436,31.2069444 C502.471281,31.2069444 501.823335,31.4444421 501.350502,31.9194444 C500.87767,32.3944468 500.641257,33.0453662 500.641257,33.8722222 L500.641257,41.1027778 C500.641257,41.2787046 500.579965,41.4282401 500.457378,41.5513889 C500.334792,41.6745377 500.18594,41.7361111 500.010816,41.7361111 L497.672933,41.7361111 C497.49781,41.7361111 497.348958,41.6745377 497.226371,41.5513889 Z" id="logo-yellow"></path>
        </g>
    </g>
</svg>