<svg xmlns="http://www.w3.org/2000/svg" width="30" height="30" viewBox="0 0 30 30">
    <g fill="none" fill-rule="evenodd">
        <path d="M0 0h30v30H0z"/>
        <circle cx="15" cy="15" r="14.5" stroke="#1DA1F2" opacity=".4"/>
        <path fill="#1DA1F2" d="M20.821 11.647a3.013 3.013 0 0 0 1.285-1.675 5.728 5.728 0 0 1-1.857.735 2.868 2.868 0 0 0-2.133-.957c-1.615 0-2.923 1.356-2.923 3.029 0 .238.024.469.075.69-2.43-.127-4.583-1.331-6.026-3.165a3.106 3.106 0 0 0-.396 1.523c0 1.05.516 1.978 1.301 2.522a2.856 2.856 0 0 1-1.325-.378v.037c0 1.468 1.007 2.693 2.346 2.97a2.767 2.767 0 0 1-.77.107c-.19 0-.373-.019-.55-.054.37 1.203 1.45 2.08 2.73 2.103A5.737 5.737 0 0 1 8.25 20.39a8.071 8.071 0 0 0 4.482 1.361c5.378 0 8.317-4.616 8.317-8.62 0-.13-.002-.262-.008-.39a6.044 6.044 0 0 0 1.459-1.57 5.68 5.68 0 0 1-1.679.477z"/>
    </g>
</svg>
